<mxfile host="Electron" agent="Mozilla/5.0 (Windows NT 10.0; Win64; x64) AppleWebKit/537.36 (KHTML, like Gecko) draw.io/27.0.9 Chrome/134.0.6998.205 Electron/35.4.0 Safari/537.36" version="27.0.9">
  <diagram name="Page-1" id="dXNfEGq-i4tOUc5brk41">
    <mxGraphModel dx="2074" dy="1185" grid="1" gridSize="10" guides="1" tooltips="1" connect="1" arrows="1" fold="1" page="1" pageScale="1" pageWidth="850" pageHeight="1100" math="0" shadow="0">
      <root>
        <mxCell id="0" />
        <mxCell id="1" parent="0" />
        <mxCell id="Qro_2VGHVy5KbLBucUNt-43" value="" style="shape=ext;double=1;rounded=0;whiteSpace=wrap;html=1;fillColor=#d5e8d4;strokeColor=#82b366;gradientColor=#97d077;" parent="1" vertex="1">
          <mxGeometry x="-260" y="70" width="1170" height="250" as="geometry" />
        </mxCell>
        <mxCell id="Qro_2VGHVy5KbLBucUNt-41" value="" style="shape=ext;double=1;rounded=0;whiteSpace=wrap;html=1;fillColor=#76608a;fontColor=#ffffff;strokeColor=#432D57;" parent="1" vertex="1">
          <mxGeometry x="-260" y="340" width="1170" height="350" as="geometry" />
        </mxCell>
        <mxCell id="Qro_2VGHVy5KbLBucUNt-1" value="" style="sketch=0;outlineConnect=0;fontColor=#232F3E;gradientColor=none;fillColor=#E7157B;strokeColor=none;dashed=0;verticalLabelPosition=bottom;verticalAlign=top;align=center;html=1;fontSize=12;fontStyle=0;aspect=fixed;pointerEvents=1;shape=mxgraph.aws4.http_notification;" parent="1" vertex="1">
          <mxGeometry x="50" y="166" width="78" height="78" as="geometry" />
        </mxCell>
        <mxCell id="Qro_2VGHVy5KbLBucUNt-36" style="edgeStyle=orthogonalEdgeStyle;rounded=0;orthogonalLoop=1;jettySize=auto;html=1;exitX=0.5;exitY=1;exitDx=0;exitDy=0;exitPerimeter=0;entryX=0;entryY=0.5;entryDx=0;entryDy=0;" parent="1" target="Qro_2VGHVy5KbLBucUNt-6" edge="1">
          <mxGeometry relative="1" as="geometry">
            <mxPoint x="670" y="251" as="sourcePoint" />
          </mxGeometry>
        </mxCell>
        <mxCell id="Qro_2VGHVy5KbLBucUNt-4" value="" style="verticalLabelPosition=bottom;html=1;verticalAlign=top;align=center;strokeColor=none;fillColor=#00BEF2;shape=mxgraph.azure.computer;pointerEvents=1;" parent="1" vertex="1">
          <mxGeometry x="-210" y="173" width="90" height="82" as="geometry" />
        </mxCell>
        <mxCell id="Qro_2VGHVy5KbLBucUNt-37" style="edgeStyle=orthogonalEdgeStyle;rounded=0;orthogonalLoop=1;jettySize=auto;html=1;" parent="1" source="Qro_2VGHVy5KbLBucUNt-6" edge="1">
          <mxGeometry relative="1" as="geometry">
            <mxPoint x="670" y="510" as="targetPoint" />
          </mxGeometry>
        </mxCell>
        <mxCell id="Qro_2VGHVy5KbLBucUNt-6" value="" style="image;aspect=fixed;perimeter=ellipsePerimeter;html=1;align=center;shadow=0;dashed=0;spacingTop=3;image=img/lib/active_directory/tunnel.svg;rotation=90;" parent="1" vertex="1">
          <mxGeometry x="590" y="361.5" width="160" height="32" as="geometry" />
        </mxCell>
        <mxCell id="Qro_2VGHVy5KbLBucUNt-38" style="edgeStyle=orthogonalEdgeStyle;rounded=0;orthogonalLoop=1;jettySize=auto;html=1;" parent="1" source="Qro_2VGHVy5KbLBucUNt-7" edge="1">
          <mxGeometry relative="1" as="geometry">
            <mxPoint x="530" y="551.5" as="targetPoint" />
          </mxGeometry>
        </mxCell>
        <mxCell id="Qro_2VGHVy5KbLBucUNt-7" value="" style="sketch=0;pointerEvents=1;shadow=0;dashed=0;html=1;strokeColor=none;fillColor=#505050;labelPosition=center;verticalLabelPosition=bottom;verticalAlign=top;outlineConnect=0;align=center;shape=mxgraph.office.servers.reverse_proxy;" parent="1" vertex="1">
          <mxGeometry x="645" y="510.25" width="70" height="82.5" as="geometry" />
        </mxCell>
        <mxCell id="Qro_2VGHVy5KbLBucUNt-39" style="edgeStyle=orthogonalEdgeStyle;rounded=0;orthogonalLoop=1;jettySize=auto;html=1;" parent="1" source="Qro_2VGHVy5KbLBucUNt-8" edge="1">
          <mxGeometry relative="1" as="geometry">
            <mxPoint x="320" y="555.5500000000002" as="targetPoint" />
          </mxGeometry>
        </mxCell>
        <mxCell id="Qro_2VGHVy5KbLBucUNt-8" value="" style="points=[];aspect=fixed;html=1;align=center;shadow=0;dashed=0;fillColor=#FF6A00;strokeColor=none;shape=mxgraph.alibaba_cloud.dcdn_dynamic_route_for_cdn;" parent="1" vertex="1">
          <mxGeometry x="460" y="521.1" width="58.36" height="68.9" as="geometry" />
        </mxCell>
        <mxCell id="Qro_2VGHVy5KbLBucUNt-9" value="&lt;font style=&quot;font-size: 16px;&quot;&gt;K8s Ingress Object&amp;nbsp;&lt;span style=&quot;background-color: transparent; color: light-dark(rgb(0, 0, 0), rgb(255, 255, 255));&quot;&gt;routes&amp;nbsp;&lt;/span&gt;&lt;/font&gt;&lt;div&gt;&lt;span style=&quot;background-color: transparent; color: light-dark(rgb(0, 0, 0), rgb(255, 255, 255));&quot;&gt;&lt;font style=&quot;font-size: 16px;&quot;&gt;zhf.danielstanecki.com --&amp;gt; app&amp;nbsp;&lt;/font&gt;&lt;/span&gt;&lt;/div&gt;&lt;div&gt;&lt;span style=&quot;background-color: transparent; color: light-dark(rgb(0, 0, 0), rgb(255, 255, 255));&quot;&gt;&lt;font style=&quot;font-size: 16px;&quot;&gt;service.&amp;nbsp;&lt;/font&gt;&lt;/span&gt;&lt;span style=&quot;font-size: 16px; background-color: transparent; color: light-dark(rgb(0, 0, 0), rgb(255, 255, 255));&quot;&gt;TLS secret is referenced&amp;nbsp;&lt;/span&gt;&lt;/div&gt;&lt;div&gt;&lt;div&gt;&lt;font style=&quot;font-size: 16px;&quot;&gt;by Ingress&lt;/font&gt;&lt;/div&gt;&lt;/div&gt;" style="text;html=1;align=center;verticalAlign=middle;resizable=0;points=[];autosize=1;strokeColor=none;fillColor=none;" parent="1" vertex="1">
          <mxGeometry x="365" y="588.05" width="260" height="90" as="geometry" />
        </mxCell>
        <mxCell id="Qro_2VGHVy5KbLBucUNt-40" style="edgeStyle=orthogonalEdgeStyle;rounded=0;orthogonalLoop=1;jettySize=auto;html=1;" parent="1" source="Qro_2VGHVy5KbLBucUNt-10" edge="1">
          <mxGeometry relative="1" as="geometry">
            <mxPoint x="100" y="551.5000000000002" as="targetPoint" />
          </mxGeometry>
        </mxCell>
        <mxCell id="Qro_2VGHVy5KbLBucUNt-10" value="" style="verticalLabelPosition=bottom;sketch=0;aspect=fixed;html=1;verticalAlign=top;strokeColor=none;align=center;outlineConnect=0;shape=mxgraph.citrix.middleware;" parent="1" vertex="1">
          <mxGeometry x="198.35999999999996" y="517.5" width="114" height="68" as="geometry" />
        </mxCell>
        <mxCell id="Qro_2VGHVy5KbLBucUNt-12" value="&lt;font style=&quot;font-size: 14px;&quot;&gt;Traefik Middleware applies&lt;/font&gt;&lt;div&gt;&lt;font style=&quot;font-size: 14px;&quot;&gt;rate limiting and redirects&amp;nbsp;&lt;/font&gt;&lt;div&gt;&lt;font style=&quot;font-size: 14px;&quot;&gt;HTTP&amp;nbsp;&lt;/font&gt;&lt;span style=&quot;font-size: 14px; background-color: transparent; color: light-dark(rgb(0, 0, 0), rgb(255, 255, 255));&quot;&gt;to HTTPS&amp;nbsp;&lt;/span&gt;&lt;/div&gt;&lt;/div&gt;" style="text;html=1;align=center;verticalAlign=middle;resizable=0;points=[];autosize=1;strokeColor=none;fillColor=none;" parent="1" vertex="1">
          <mxGeometry x="160.35999999999996" y="603.05" width="190" height="60" as="geometry" />
        </mxCell>
        <mxCell id="Qro_2VGHVy5KbLBucUNt-14" value="" style="verticalLabelPosition=bottom;html=1;verticalAlign=top;align=center;strokeColor=none;fillColor=#00BEF2;shape=mxgraph.azure.certificate;pointerEvents=1;" parent="1" vertex="1">
          <mxGeometry x="312.36" y="442" width="77.82" height="54" as="geometry" />
        </mxCell>
        <mxCell id="Qro_2VGHVy5KbLBucUNt-15" value="&lt;font style=&quot;font-size: 14px;&quot;&gt;cert-manager ClusterIssuer&amp;nbsp;&lt;/font&gt;&lt;div&gt;&lt;font style=&quot;font-size: 14px;&quot;&gt;&lt;font style=&quot;&quot;&gt;object&amp;nbsp;&lt;/font&gt;&lt;span style=&quot;background-color: transparent; color: light-dark(rgb(0, 0, 0), rgb(255, 255, 255));&quot;&gt;using LetsEncrypt with&amp;nbsp;&lt;/span&gt;&lt;/font&gt;&lt;/div&gt;&lt;div&gt;&lt;font style=&quot;font-size: 14px;&quot;&gt;&lt;span style=&quot;background-color: transparent; color: light-dark(rgb(0, 0, 0), rgb(255, 255, 255));&quot;&gt;DNS01 Challenge&amp;nbsp;&lt;/span&gt;&lt;span style=&quot;background-color: transparent; color: light-dark(rgb(0, 0, 0), rgb(255, 255, 255));&quot;&gt;connects&lt;/span&gt;&lt;/font&gt;&lt;/div&gt;&lt;div&gt;&lt;font style=&quot;font-size: 14px;&quot;&gt;&lt;span style=&quot;background-color: transparent; color: light-dark(rgb(0, 0, 0), rgb(255, 255, 255));&quot;&gt;&amp;nbsp;to Route 53 via&amp;nbsp;&lt;/span&gt;&lt;span style=&quot;background-color: transparent; color: light-dark(rgb(0, 0, 0), rgb(255, 255, 255));&quot;&gt;AWS service&amp;nbsp;&lt;/span&gt;&lt;/font&gt;&lt;/div&gt;&lt;div&gt;&lt;span style=&quot;background-color: transparent; color: light-dark(rgb(0, 0, 0), rgb(255, 255, 255));&quot;&gt;&lt;font style=&quot;font-size: 14px;&quot;&gt;account credentials&lt;/font&gt;&lt;/span&gt;&lt;/div&gt;" style="text;html=1;align=center;verticalAlign=middle;resizable=0;points=[];autosize=1;strokeColor=none;fillColor=none;" parent="1" vertex="1">
          <mxGeometry x="246.27" y="339.99999999999994" width="210" height="100" as="geometry" />
        </mxCell>
        <mxCell id="Qro_2VGHVy5KbLBucUNt-16" value="&lt;font style=&quot;font-size: 16px;&quot;&gt;CloudFlare Tunnel -&amp;nbsp;&lt;/font&gt;&lt;div&gt;&lt;font style=&quot;font-size: 16px;&quot;&gt;TLS is re-established&lt;/font&gt;&lt;/div&gt;" style="text;html=1;align=center;verticalAlign=middle;resizable=0;points=[];autosize=1;strokeColor=none;fillColor=none;" parent="1" vertex="1">
          <mxGeometry x="690" y="352.5" width="170" height="50" as="geometry" />
        </mxCell>
        <mxCell id="Qro_2VGHVy5KbLBucUNt-17" value="&lt;font style=&quot;font-size: 16px;&quot;&gt;Traefik Ingress Controller&lt;/font&gt;&lt;div&gt;&lt;font style=&quot;font-size: 16px;&quot;&gt;reverse proxy&amp;nbsp;&lt;span style=&quot;background-color: transparent; color: light-dark(rgb(0, 0, 0), rgb(255, 255, 255));&quot;&gt;performs&amp;nbsp;&lt;/span&gt;&lt;/font&gt;&lt;/div&gt;&lt;div&gt;&lt;font style=&quot;font-size: 16px;&quot;&gt;&lt;span style=&quot;background-color: transparent; color: light-dark(rgb(0, 0, 0), rgb(255, 255, 255));&quot;&gt;TLS handshake&amp;nbsp;&lt;/span&gt;&lt;span style=&quot;background-color: transparent; color: light-dark(rgb(0, 0, 0), rgb(255, 255, 255));&quot;&gt;and&amp;nbsp;&lt;/span&gt;&lt;/font&gt;&lt;/div&gt;&lt;div&gt;&lt;span style=&quot;background-color: transparent; color: light-dark(rgb(0, 0, 0), rgb(255, 255, 255));&quot;&gt;&lt;font style=&quot;font-size: 16px;&quot;&gt;terminates TLS&lt;/font&gt;&lt;/span&gt;&lt;/div&gt;" style="text;html=1;align=center;verticalAlign=middle;resizable=0;points=[];autosize=1;strokeColor=none;fillColor=none;" parent="1" vertex="1">
          <mxGeometry x="700" y="520.25" width="200" height="90" as="geometry" />
        </mxCell>
        <mxCell id="Qro_2VGHVy5KbLBucUNt-18" value="" style="verticalLabelPosition=bottom;html=1;verticalAlign=top;align=center;strokeColor=none;fillColor=#00BEF2;shape=mxgraph.azure.load_balancer_generic;pointerEvents=1;rotation=90;" parent="1" vertex="1">
          <mxGeometry x="-4.5" y="496" width="82.5" height="109" as="geometry" />
        </mxCell>
        <mxCell id="Qro_2VGHVy5KbLBucUNt-19" value="&lt;font style=&quot;font-size: 16px;&quot;&gt;App ClusterIP service distributes&lt;/font&gt;&lt;div&gt;&lt;font style=&quot;font-size: 16px;&quot;&gt;&amp;nbsp;traffic&amp;nbsp;&lt;span style=&quot;background-color: transparent; color: light-dark(rgb(0, 0, 0), rgb(255, 255, 255));&quot;&gt;evenly between pods&amp;nbsp;&lt;/span&gt;&lt;/font&gt;&lt;/div&gt;&lt;div&gt;&lt;font style=&quot;font-size: 16px;&quot;&gt;&lt;span style=&quot;background-color: transparent; color: light-dark(rgb(0, 0, 0), rgb(255, 255, 255));&quot;&gt;on&amp;nbsp;&lt;/span&gt;&lt;span style=&quot;background-color: transparent; color: light-dark(rgb(0, 0, 0), rgb(255, 255, 255));&quot;&gt;different nodes&lt;/span&gt;&lt;/font&gt;&lt;/div&gt;" style="text;html=1;align=center;verticalAlign=middle;resizable=0;points=[];autosize=1;strokeColor=none;fillColor=none;" parent="1" vertex="1">
          <mxGeometry x="-100" y="598.05" width="250" height="70" as="geometry" />
        </mxCell>
        <mxCell id="Qro_2VGHVy5KbLBucUNt-23" style="edgeStyle=orthogonalEdgeStyle;rounded=0;orthogonalLoop=1;jettySize=auto;html=1;exitX=0.5;exitY=1;exitDx=0;exitDy=0;exitPerimeter=0;" parent="1" source="Qro_2VGHVy5KbLBucUNt-21" edge="1">
          <mxGeometry relative="1" as="geometry">
            <mxPoint x="-180" y="635.05" as="targetPoint" />
          </mxGeometry>
        </mxCell>
        <mxCell id="Qro_2VGHVy5KbLBucUNt-21" value="" style="aspect=fixed;sketch=0;html=1;dashed=0;whitespace=wrap;verticalLabelPosition=bottom;verticalAlign=top;fillColor=#2875E2;strokeColor=#ffffff;points=[[0.005,0.63,0],[0.1,0.2,0],[0.9,0.2,0],[0.5,0,0],[0.995,0.63,0],[0.72,0.99,0],[0.5,1,0],[0.28,0.99,0]];shape=mxgraph.kubernetes.icon2;kubernetesLabel=1;prIcon=node" parent="1" vertex="1">
          <mxGeometry x="-230" y="560" width="100.05" height="96.05" as="geometry" />
        </mxCell>
        <mxCell id="Qro_2VGHVy5KbLBucUNt-22" value="" style="aspect=fixed;sketch=0;html=1;dashed=0;whitespace=wrap;verticalLabelPosition=bottom;verticalAlign=top;fillColor=#2875E2;strokeColor=#ffffff;points=[[0.005,0.63,0],[0.1,0.2,0],[0.9,0.2,0],[0.5,0,0],[0.995,0.63,0],[0.72,0.99,0],[0.5,1,0],[0.28,0.99,0]];shape=mxgraph.kubernetes.icon2;kubernetesLabel=1;prIcon=node" parent="1" vertex="1">
          <mxGeometry x="-230" y="420" width="101.56" height="97.5" as="geometry" />
        </mxCell>
        <mxCell id="Qro_2VGHVy5KbLBucUNt-24" value="&lt;font style=&quot;color: light-dark(rgb(0, 0, 0), rgb(0, 0, 0)); font-size: 16px;&quot;&gt;Client&lt;/font&gt;" style="text;html=1;align=center;verticalAlign=middle;resizable=0;points=[];autosize=1;strokeColor=none;fillColor=none;" parent="1" vertex="1">
          <mxGeometry x="-195" y="136" width="60" height="30" as="geometry" />
        </mxCell>
        <mxCell id="Qro_2VGHVy5KbLBucUNt-25" value="&lt;font style=&quot;color: light-dark(rgb(0, 0, 0), rgb(0, 0, 0)); font-size: 16px;&quot;&gt;HTTP/S request to&amp;nbsp;&lt;/font&gt;&lt;div&gt;&lt;font style=&quot;color: light-dark(rgb(0, 0, 0), rgb(0, 0, 0)); font-size: 16px;&quot;&gt;zhf.danielstanecki.com&lt;/font&gt;&lt;/div&gt;" style="text;html=1;align=center;verticalAlign=middle;resizable=0;points=[];autosize=1;strokeColor=none;fillColor=none;" parent="1" vertex="1">
          <mxGeometry x="-6" y="116" width="190" height="50" as="geometry" />
        </mxCell>
        <mxCell id="Qro_2VGHVy5KbLBucUNt-26" value="&lt;font style=&quot;color: light-dark(rgb(0, 0, 0), rgb(0, 0, 0)); font-size: 16px;&quot;&gt;DNS CNAME record&amp;nbsp;&lt;/font&gt;&lt;div&gt;&lt;font style=&quot;color: light-dark(rgb(0, 0, 0), rgb(0, 0, 0)); font-size: 16px;&quot;&gt;redirects zhf.danielstanecki.com&amp;nbsp;&lt;/font&gt;&lt;/div&gt;&lt;div&gt;&lt;font style=&quot;color: light-dark(rgb(0, 0, 0), rgb(0, 0, 0)); font-size: 16px;&quot;&gt;to &lt;b&gt;CloudFlare-provided domain&lt;/b&gt;&lt;/font&gt;&lt;/div&gt;&lt;div&gt;&lt;font style=&quot;color: light-dark(rgb(0, 0, 0), rgb(0, 0, 0)); font-size: 16px;&quot;&gt;&lt;font style=&quot;&quot;&gt;(e.g.,&amp;nbsp;&lt;/font&gt;&lt;span style=&quot;background-color: transparent;&quot;&gt;&amp;lt;TUNNELID&amp;gt;.cfargotunnel.com)&lt;/span&gt;&lt;/font&gt;&lt;/div&gt;" style="text;html=1;align=center;verticalAlign=middle;resizable=0;points=[];autosize=1;strokeColor=none;fillColor=none;" parent="1" vertex="1">
          <mxGeometry x="201.18" y="81" width="300" height="90" as="geometry" />
        </mxCell>
        <mxCell id="Qro_2VGHVy5KbLBucUNt-27" value="" style="endArrow=classic;startArrow=classic;html=1;rounded=0;exitX=0.495;exitY=-0.063;exitDx=0;exitDy=0;exitPerimeter=0;" parent="1" source="Qro_2VGHVy5KbLBucUNt-15" edge="1">
          <mxGeometry width="50" height="50" relative="1" as="geometry">
            <mxPoint x="350" y="325" as="sourcePoint" />
            <mxPoint x="350" y="255" as="targetPoint" />
          </mxGeometry>
        </mxCell>
        <mxCell id="Qro_2VGHVy5KbLBucUNt-29" value="" style="endArrow=classic;html=1;rounded=0;entryX=0.995;entryY=0.63;entryDx=0;entryDy=0;entryPerimeter=0;" parent="1" target="Qro_2VGHVy5KbLBucUNt-22" edge="1">
          <mxGeometry width="50" height="50" relative="1" as="geometry">
            <mxPoint x="-40" y="530" as="sourcePoint" />
            <mxPoint x="-10" y="480" as="targetPoint" />
          </mxGeometry>
        </mxCell>
        <mxCell id="Qro_2VGHVy5KbLBucUNt-30" value="" style="endArrow=classic;html=1;rounded=0;entryX=1.023;entryY=0.445;entryDx=0;entryDy=0;entryPerimeter=0;" parent="1" target="Qro_2VGHVy5KbLBucUNt-21" edge="1">
          <mxGeometry width="50" height="50" relative="1" as="geometry">
            <mxPoint x="-40" y="570" as="sourcePoint" />
            <mxPoint x="-160" y="617" as="targetPoint" />
          </mxGeometry>
        </mxCell>
        <mxCell id="Qro_2VGHVy5KbLBucUNt-31" value="&lt;font style=&quot;color: light-dark(rgb(0, 0, 0), rgb(0, 0, 0)); font-size: 16px;&quot;&gt;CloudFlare Edge Server receives&amp;nbsp;&lt;/font&gt;&lt;div&gt;&lt;font style=&quot;font-size: 16px;&quot;&gt;&lt;font style=&quot;color: light-dark(rgb(0, 0, 0), rgb(0, 0, 0));&quot;&gt;traffic&amp;nbsp;&lt;/font&gt;&lt;span style=&quot;color: light-dark(rgb(0, 0, 0), rgb(0, 0, 0)); background-color: transparent;&quot;&gt;from Client and terminates TLS&lt;/span&gt;&lt;/font&gt;&lt;/div&gt;&lt;div&gt;&lt;span style=&quot;color: light-dark(rgb(0, 0, 0), rgb(0, 0, 0)); background-color: transparent;&quot;&gt;&lt;font style=&quot;font-size: 16px;&quot;&gt;(unfortunate limitation of CloudFlare)&lt;/font&gt;&lt;/span&gt;&lt;/div&gt;" style="text;html=1;align=center;verticalAlign=middle;resizable=0;points=[];autosize=1;strokeColor=none;fillColor=none;" parent="1" vertex="1">
          <mxGeometry x="525" y="96" width="290" height="70" as="geometry" />
        </mxCell>
        <mxCell id="Qro_2VGHVy5KbLBucUNt-32" value="" style="endArrow=classic;html=1;rounded=0;exitX=1;exitY=0.5;exitDx=0;exitDy=0;exitPerimeter=0;" parent="1" source="Qro_2VGHVy5KbLBucUNt-4" edge="1">
          <mxGeometry width="50" height="50" relative="1" as="geometry">
            <mxPoint x="-90" y="220" as="sourcePoint" />
            <mxPoint x="40" y="214" as="targetPoint" />
          </mxGeometry>
        </mxCell>
        <mxCell id="Qro_2VGHVy5KbLBucUNt-33" value="" style="endArrow=classic;html=1;rounded=0;" parent="1" edge="1">
          <mxGeometry width="50" height="50" relative="1" as="geometry">
            <mxPoint x="140" y="210" as="sourcePoint" />
            <mxPoint x="300" y="210" as="targetPoint" />
          </mxGeometry>
        </mxCell>
        <mxCell id="Qro_2VGHVy5KbLBucUNt-34" value="" style="endArrow=classic;html=1;rounded=0;" parent="1" edge="1">
          <mxGeometry width="50" height="50" relative="1" as="geometry">
            <mxPoint x="400" y="210" as="sourcePoint" />
            <mxPoint x="620" y="210" as="targetPoint" />
          </mxGeometry>
        </mxCell>
        <mxCell id="Qro_2VGHVy5KbLBucUNt-44" value="&lt;b&gt;&lt;font style=&quot;color: rgb(0, 153, 0); font-size: 18px;&quot;&gt;PUBLIC INTERNET&lt;/font&gt;&lt;/b&gt;" style="text;html=1;align=center;verticalAlign=middle;resizable=0;points=[];autosize=1;strokeColor=none;fillColor=none;" parent="1" vertex="1">
          <mxGeometry x="-260" y="70" width="190" height="40" as="geometry" />
        </mxCell>
        <mxCell id="Qro_2VGHVy5KbLBucUNt-46" value="&lt;font style=&quot;font-size: 18px;&quot;&gt;&lt;b&gt;KUBENETES CLUSTER&lt;/b&gt;&lt;/font&gt;" style="text;html=1;align=center;verticalAlign=middle;resizable=0;points=[];autosize=1;strokeColor=none;fillColor=none;" parent="1" vertex="1">
          <mxGeometry x="-250" y="350" width="220" height="40" as="geometry" />
        </mxCell>
        <mxCell id="Qro_2VGHVy5KbLBucUNt-48" value="" style="image;aspect=fixed;perimeter=ellipsePerimeter;html=1;align=center;shadow=0;dashed=0;spacingTop=3;image=img/lib/active_directory/generic_server.svg;" parent="1" vertex="1">
          <mxGeometry x="645" y="166" width="49.84" height="89" as="geometry" />
        </mxCell>
        <mxCell id="Qro_2VGHVy5KbLBucUNt-49" value="" style="verticalLabelPosition=bottom;html=1;verticalAlign=top;align=center;strokeColor=none;fillColor=#00BEF2;shape=mxgraph.azure.certificate;pointerEvents=1;" parent="1" vertex="1">
          <mxGeometry x="500" y="445.75" width="70" height="50.25" as="geometry" />
        </mxCell>
        <mxCell id="Qro_2VGHVy5KbLBucUNt-50" value="&lt;font style=&quot;font-size: 14px;&quot;&gt;Certificate Object&amp;nbsp;&lt;/font&gt;&lt;div&gt;&lt;font style=&quot;font-size: 14px;&quot;&gt;requests cert&amp;nbsp;&lt;/font&gt;&lt;div&gt;&lt;font style=&quot;font-size: 14px;&quot;&gt;from ClusterIssuer&lt;/font&gt;&lt;/div&gt;&lt;/div&gt;&lt;div&gt;&lt;font style=&quot;font-size: 14px;&quot;&gt;and creates a k8s&lt;/font&gt;&lt;/div&gt;&lt;div&gt;&lt;font style=&quot;font-size: 14px;&quot;&gt;TLS secret&lt;/font&gt;&lt;/div&gt;" style="text;html=1;align=center;verticalAlign=middle;resizable=0;points=[];autosize=1;strokeColor=none;fillColor=none;" parent="1" vertex="1">
          <mxGeometry x="480" y="345.75" width="140" height="100" as="geometry" />
        </mxCell>
        <mxCell id="Qro_2VGHVy5KbLBucUNt-52" value="" style="endArrow=classic;startArrow=classic;html=1;rounded=0;exitX=0.98;exitY=0.5;exitDx=0;exitDy=0;exitPerimeter=0;entryX=0;entryY=0.5;entryDx=0;entryDy=0;entryPerimeter=0;" parent="1" source="Qro_2VGHVy5KbLBucUNt-14" target="Qro_2VGHVy5KbLBucUNt-49" edge="1">
          <mxGeometry width="50" height="50" relative="1" as="geometry">
            <mxPoint x="400" y="490" as="sourcePoint" />
            <mxPoint x="450" y="440" as="targetPoint" />
          </mxGeometry>
        </mxCell>
        <mxCell id="Qro_2VGHVy5KbLBucUNt-53" value="" style="endArrow=classic;startArrow=classic;html=1;rounded=0;entryX=0.328;entryY=0.664;entryDx=0;entryDy=0;entryPerimeter=0;exitX=0.675;exitY=0.006;exitDx=0;exitDy=0;exitPerimeter=0;" parent="1" source="Qro_2VGHVy5KbLBucUNt-8" target="Qro_2VGHVy5KbLBucUNt-49" edge="1">
          <mxGeometry width="50" height="50" relative="1" as="geometry">
            <mxPoint x="500" y="520" as="sourcePoint" />
            <mxPoint x="560" y="490" as="targetPoint" />
            <Array as="points">
              <mxPoint x="510" y="500" />
            </Array>
          </mxGeometry>
        </mxCell>
        <mxCell id="B6wf5LKh3ZsqJm8NzbB6-2" value="" style="image;sketch=0;aspect=fixed;html=1;points=[];align=center;fontSize=12;image=img/lib/mscae/DNS.svg;" vertex="1" parent="1">
          <mxGeometry x="316.68" y="179.5" width="69" height="69" as="geometry" />
        </mxCell>
      </root>
    </mxGraphModel>
  </diagram>
</mxfile>
